<?xml version="1.0" encoding="UTF-8"?>
<svg xmlns="http://www.w3.org/2000/svg" xmlns:xlink="http://www.w3.org/1999/xlink" width="164.3pt" height="143.698pt" viewBox="0 0 164.3 143.698">
<defs>
<g>
<g id="glyph-0-0">
<path d="M 4.609375 -2.703125 C 3.53125 -2.59375 2.765625 -2.40625 2.046875 -2.046875 C 1.59375 -1.828125 1.34375 -1.640625 1.09375 -1.390625 C 0.609375 -0.90625 0.265625 -0.15625 0.0625 0.75 C 0 1.078125 0 1.53125 0.0625 1.765625 C 0.140625 1.984375 0.234375 2.15625 0.390625 2.328125 C 0.796875 2.703125 1.390625 2.796875 2.703125 2.640625 C 3.984375 2.5 5.15625 2.046875 5.796875 1.40625 C 6.265625 0.90625 6.625 0.15625 6.828125 -0.75 C 6.890625 -1.078125 6.890625 -1.53125 6.828125 -1.765625 C 6.75 -1.984375 6.640625 -2.15625 6.484375 -2.328125 C 6.328125 -2.484375 6.15625 -2.578125 5.875 -2.65625 C 5.6875 -2.703125 5.609375 -2.703125 5.296875 -2.71875 C 5.0625 -2.71875 4.78125 -2.703125 4.609375 -2.703125 Z M 5.640625 -2.078125 C 5.890625 -2 6.046875 -1.890625 6.171875 -1.671875 C 6.296875 -1.40625 6.265625 -1.15625 6.15625 -0.890625 C 6 -0.59375 5.515625 -0.171875 4.46875 0.5 C 3.078125 1.421875 2.296875 1.859375 1.828125 2.046875 C 1.34375 2.203125 0.90625 2.046875 0.71875 1.671875 C 0.59375 1.40625 0.609375 1.15625 0.734375 0.890625 C 0.890625 0.59375 1.375 0.171875 2.421875 -0.5 C 3.4375 -1.171875 4.09375 -1.5625 4.5 -1.78125 C 5.09375 -2.078125 5.359375 -2.140625 5.640625 -2.078125 Z M 5.640625 -2.078125 "/>
</g>
<g id="glyph-0-1">
<path d="M 3.953125 -2.71875 C 3.140625 -2.625 2.296875 -2.28125 1.59375 -1.71875 C 0.78125 -1.125 0.21875 -0.34375 0.046875 0.46875 C 0 0.734375 0 1.1875 0.0625 1.390625 C 0.234375 2.078125 0.796875 2.515625 1.625 2.703125 C 1.859375 2.734375 2.453125 2.734375 2.765625 2.703125 C 3.515625 2.5625 4.28125 2.21875 4.96875 1.71875 C 5.75 1.125 6.3125 0.34375 6.484375 -0.46875 C 6.53125 -0.734375 6.53125 -1.1875 6.46875 -1.40625 C 6.296875 -2.0625 5.75 -2.5 4.96875 -2.671875 C 4.75 -2.71875 4.1875 -2.734375 3.953125 -2.71875 Z M 3.953125 -2.71875 "/>
</g>
<g id="glyph-0-2">
<path d="M 3.765625 -7.40625 C 3.671875 -7.359375 3.609375 -7.296875 3.578125 -7.203125 C 3.53125 -7.140625 3.53125 -6.921875 3.53125 -5.5625 L 3.53125 -4.015625 L 2.734375 -3.65625 L 1.9375 -3.3125 L 1.921875 -4.796875 C 1.921875 -6.15625 1.90625 -6.3125 1.890625 -6.375 C 1.71875 -6.640625 1.3125 -6.625 1.1875 -6.328125 C 1.15625 -6.265625 1.15625 -6.046875 1.15625 -4.625 L 1.15625 -2.984375 L 0.65625 -2.78125 C 0.34375 -2.640625 0.140625 -2.546875 0.125 -2.5 C 0 -2.375 0 -2.359375 0 -1.609375 C 0 -1 0 -0.90625 0.046875 -0.828125 C 0.09375 -0.6875 0.265625 -0.59375 0.421875 -0.609375 C 0.46875 -0.609375 0.65625 -0.6875 0.8125 -0.75 L 1.125 -0.890625 C 1.15625 -0.890625 1.15625 -0.203125 1.15625 0.671875 L 1.15625 2.25 L 0.65625 2.4375 C 0.34375 2.578125 0.140625 2.671875 0.125 2.71875 C 0 2.84375 0 2.859375 0 3.609375 C 0 4.234375 0 4.3125 0.046875 4.390625 C 0.09375 4.53125 0.265625 4.625 0.421875 4.609375 C 0.46875 4.609375 0.65625 4.53125 0.8125 4.46875 L 1.125 4.328125 C 1.15625 4.328125 1.15625 4.96875 1.15625 5.734375 C 1.15625 6.953125 1.15625 7.140625 1.1875 7.203125 C 1.3125 7.515625 1.765625 7.515625 1.890625 7.203125 C 1.921875 7.140625 1.921875 6.921875 1.921875 5.5625 L 1.921875 3.96875 L 2.71875 3.625 L 3.53125 3.296875 L 3.53125 4.796875 C 3.53125 6.15625 3.546875 6.3125 3.578125 6.34375 C 3.734375 6.640625 4.125 6.625 4.265625 6.328125 C 4.3125 6.265625 4.3125 6.171875 4.3125 4.609375 L 4.3125 2.953125 L 4.796875 2.765625 C 5.125 2.625 5.3125 2.515625 5.34375 2.484375 C 5.453125 2.359375 5.453125 2.34375 5.453125 1.59375 C 5.453125 0.96875 5.453125 0.890625 5.421875 0.8125 C 5.359375 0.671875 5.203125 0.578125 5.046875 0.59375 C 4.984375 0.59375 4.796875 0.671875 4.640625 0.734375 L 4.328125 0.875 C 4.3125 0.875 4.3125 0.171875 4.3125 -0.6875 L 4.3125 -2.265625 L 4.796875 -2.453125 C 5.125 -2.59375 5.3125 -2.703125 5.34375 -2.734375 C 5.453125 -2.859375 5.453125 -2.875 5.453125 -3.625 C 5.453125 -4.25 5.453125 -4.328125 5.421875 -4.40625 C 5.359375 -4.546875 5.203125 -4.640625 5.046875 -4.625 C 4.984375 -4.625 4.796875 -4.546875 4.640625 -4.484375 L 4.328125 -4.34375 C 4.3125 -4.34375 4.3125 -4.984375 4.3125 -5.734375 C 4.3125 -7.046875 4.3125 -7.140625 4.265625 -7.21875 C 4.1875 -7.40625 3.953125 -7.5 3.765625 -7.40625 Z M 3.53125 -0.359375 L 3.53125 1.203125 L 2.765625 1.546875 C 2.34375 1.71875 1.984375 1.890625 1.96875 1.890625 C 1.921875 1.90625 1.921875 1.859375 1.921875 0.34375 L 1.921875 -1.25 L 2.71875 -1.59375 L 3.53125 -1.921875 Z M 3.53125 -0.359375 "/>
</g>
<g id="glyph-0-3">
<path d="M 0.125 -7.5625 C 0.0625 -7.546875 -0.015625 -7.5 -0.0625 -7.484375 L -0.140625 -7.46875 L -0.140625 -7.046875 C -0.140625 -6.828125 -0.09375 -4.265625 -0.0625 -1.34375 L 0 3.90625 L 0.046875 4.015625 C 0.09375 4.109375 0.171875 4.1875 0.296875 4.203125 C 0.34375 4.203125 0.6875 4.140625 1.421875 4.015625 C 2 3.890625 2.484375 3.8125 2.5 3.8125 C 2.5 3.828125 2.5 4.40625 2.484375 5.125 C 2.453125 5.828125 2.453125 6.640625 2.453125 6.953125 L 2.453125 7.46875 L 2.5625 7.5 C 2.671875 7.546875 2.84375 7.578125 2.953125 7.578125 C 3.078125 7.578125 3.234375 7.546875 3.359375 7.5 L 3.453125 7.46875 L 3.453125 7.046875 C 3.453125 6.828125 3.40625 4.265625 3.375 1.34375 L 3.3125 -3.921875 L 3.28125 -4.015625 C 3.21875 -4.109375 3.140625 -4.1875 3.015625 -4.203125 C 2.984375 -4.203125 2.625 -4.140625 1.890625 -4.015625 C 1.3125 -3.890625 0.828125 -3.8125 0.8125 -3.8125 C 0.8125 -3.828125 0.8125 -4.40625 0.828125 -5.125 C 0.859375 -5.828125 0.859375 -6.640625 0.859375 -6.953125 L 0.859375 -7.46875 L 0.75 -7.5 C 0.5625 -7.578125 0.3125 -7.59375 0.125 -7.5625 Z M 2.578125 -2.1875 C 2.578125 -1.3125 2.515625 1.859375 2.515625 1.890625 C 2.5 1.890625 0.75 2.21875 0.734375 2.21875 C 0.734375 2.203125 0.796875 -1.859375 0.796875 -1.890625 C 0.8125 -1.890625 2.515625 -2.21875 2.5625 -2.21875 C 2.578125 -2.21875 2.578125 -2.203125 2.578125 -2.1875 Z M 2.578125 -2.1875 "/>
</g>
<g id="glyph-1-0">
<path d="M 0.515625 -5.546875 C 0.453125 -5.53125 0.4375 -5.5 0.40625 -5.453125 L 0.375 -5.390625 L 0.375 -4.109375 C 0.375 -2.984375 0.375 -2.8125 0.40625 -2.78125 C 0.421875 -2.734375 0.453125 -2.703125 0.5 -2.6875 C 0.609375 -2.640625 0.671875 -2.65625 0.765625 -2.78125 C 0.90625 -2.96875 1.109375 -3.078125 1.40625 -3.125 C 1.609375 -3.171875 1.953125 -3.1875 2.078125 -3.15625 C 2.4375 -3.09375 2.625 -2.640625 2.625 -1.8125 C 2.625 -1.046875 2.4375 -0.546875 2.109375 -0.390625 C 2 -0.328125 1.90625 -0.328125 1.703125 -0.328125 C 1.28125 -0.34375 1.03125 -0.453125 0.921875 -0.640625 C 0.90625 -0.6875 0.90625 -0.71875 0.90625 -0.78125 C 0.90625 -0.859375 0.90625 -0.875 0.921875 -0.90625 C 0.953125 -0.953125 0.984375 -0.984375 1.140625 -1.109375 C 1.1875 -1.125 1.234375 -1.171875 1.25 -1.203125 C 1.28125 -1.25 1.28125 -1.265625 1.28125 -1.34375 C 1.28125 -1.515625 1.21875 -1.65625 1.09375 -1.78125 C 0.75 -2.125 0.1875 -1.984375 0.015625 -1.5 C 0 -1.421875 0 -1.1875 0.03125 -1.0625 C 0.09375 -0.84375 0.171875 -0.6875 0.328125 -0.53125 C 0.609375 -0.265625 0.984375 -0.09375 1.453125 -0.015625 C 1.625 0 2.03125 0 2.21875 -0.015625 C 2.921875 -0.140625 3.46875 -0.453125 3.796875 -0.9375 C 3.859375 -1.03125 3.953125 -1.234375 3.984375 -1.34375 C 4.0625 -1.546875 4.0625 -1.78125 4.046875 -2.03125 C 3.953125 -2.96875 3.359375 -3.46875 2.265625 -3.5625 C 1.65625 -3.609375 1.1875 -3.515625 0.875 -3.265625 L 0.78125 -3.1875 L 0.78125 -3.609375 C 0.78125 -4.0625 0.78125 -4.078125 0.828125 -4.140625 C 0.890625 -4.203125 0.921875 -4.21875 1.125 -4.21875 C 1.609375 -4.234375 2 -4.3125 2.390625 -4.4375 C 2.9375 -4.609375 3.4375 -4.90625 3.8125 -5.265625 C 3.90625 -5.359375 3.90625 -5.375 3.90625 -5.40625 C 3.90625 -5.453125 3.859375 -5.515625 3.8125 -5.546875 C 3.75 -5.5625 3.671875 -5.5625 3.375 -5.53125 C 2.421875 -5.375 1.71875 -5.375 0.75 -5.546875 C 0.5625 -5.5625 0.546875 -5.5625 0.515625 -5.546875 Z M 0.515625 -5.546875 "/>
</g>
<g id="glyph-1-1">
<path d="M 1.5625 -5.5625 C 1.53125 -5.5625 1.484375 -5.5625 1.4375 -5.546875 C 1.3125 -5.53125 1.109375 -5.484375 0.984375 -5.421875 C 0.484375 -5.234375 0.1875 -4.859375 0.15625 -4.421875 C 0.15625 -4.296875 0.171875 -4.21875 0.21875 -4.09375 C 0.296875 -3.9375 0.453125 -3.828125 0.640625 -3.796875 C 0.953125 -3.75 1.234375 -3.96875 1.28125 -4.265625 C 1.296875 -4.40625 1.28125 -4.46875 1.15625 -4.5625 C 0.96875 -4.703125 0.9375 -4.75 0.953125 -4.859375 C 0.96875 -5.0625 1.171875 -5.1875 1.515625 -5.234375 C 1.84375 -5.265625 2.03125 -5.21875 2.1875 -5.078125 C 2.265625 -5 2.3125 -4.90625 2.34375 -4.78125 C 2.40625 -4.625 2.421875 -4.53125 2.421875 -4.09375 C 2.421875 -3.75 2.40625 -3.671875 2.390625 -3.578125 C 2.34375 -3.375 2.265625 -3.25 2.125 -3.203125 C 2.078125 -3.171875 2.046875 -3.171875 1.5625 -3.15625 C 1.0625 -3.15625 1.03125 -3.15625 1 -3.125 C 0.875 -3.046875 0.875 -2.859375 1.015625 -2.78125 C 1.0625 -2.765625 1.0625 -2.765625 1.53125 -2.765625 C 1.921875 -2.765625 2.015625 -2.765625 2.078125 -2.734375 C 2.265625 -2.703125 2.34375 -2.578125 2.390625 -2.34375 C 2.421875 -2.21875 2.421875 -1.34375 2.390625 -1.15625 C 2.3125 -0.59375 2.109375 -0.328125 1.75 -0.328125 C 1.4375 -0.328125 1.140625 -0.40625 1.015625 -0.53125 C 0.9375 -0.59375 0.90625 -0.671875 0.90625 -0.78125 C 0.90625 -0.859375 0.90625 -0.875 0.9375 -0.90625 C 0.953125 -0.953125 0.984375 -0.984375 1.03125 -1.015625 C 1.203125 -1.140625 1.21875 -1.15625 1.265625 -1.203125 C 1.28125 -1.25 1.28125 -1.265625 1.28125 -1.34375 C 1.28125 -1.515625 1.21875 -1.65625 1.09375 -1.78125 C 0.75 -2.125 0.1875 -1.984375 0.015625 -1.5 C 0 -1.421875 0 -1.1875 0.015625 -1.078125 C 0.09375 -0.796875 0.28125 -0.53125 0.53125 -0.359375 C 0.78125 -0.203125 1.078125 -0.078125 1.421875 -0.015625 C 1.59375 0 2.015625 0 2.21875 -0.015625 C 3.234375 -0.171875 3.8125 -0.6875 3.859375 -1.5 C 3.875 -2.03125 3.65625 -2.421875 3.234375 -2.640625 C 3.125 -2.703125 3.09375 -2.734375 3.046875 -2.8125 C 3.015625 -2.875 3.015625 -2.890625 3.015625 -2.96875 C 3.015625 -3.125 3.078125 -3.203125 3.234375 -3.28125 C 3.40625 -3.375 3.53125 -3.515625 3.59375 -3.71875 C 3.65625 -3.890625 3.671875 -4 3.671875 -4.265625 C 3.671875 -4.515625 3.671875 -4.578125 3.59375 -4.75 C 3.421875 -5.1875 2.9375 -5.453125 2.1875 -5.546875 C 2.078125 -5.5625 1.609375 -5.5625 1.5625 -5.5625 Z M 1.5625 -5.5625 "/>
</g>
<g id="glyph-1-2">
<path d="M 1.5 -5.5625 C 1.453125 -5.53125 1.40625 -5.484375 1.390625 -5.421875 C 1.390625 -5.40625 1.375 -5.296875 1.375 -5.1875 C 1.34375 -4.265625 1.09375 -3.421875 0.609375 -2.625 C 0.453125 -2.34375 0.28125 -2.125 0.015625 -1.8125 C -0.015625 -1.765625 -0.03125 -1.703125 -0.015625 -1.625 C 0.03125 -1.53125 0.140625 -1.4375 0.28125 -1.40625 C 0.3125 -1.390625 0.609375 -1.390625 1.21875 -1.390625 L 2.09375 -1.390625 L 2.09375 -1.34375 C 2.09375 -1.265625 2.0625 -1.109375 2.03125 -1 C 1.953125 -0.765625 1.828125 -0.59375 1.671875 -0.484375 C 1.53125 -0.375 1.421875 -0.328125 1.265625 -0.328125 C 1.1875 -0.3125 1.140625 -0.3125 1.109375 -0.296875 C 1 -0.234375 1.015625 -0.078125 1.125 -0.015625 C 1.1875 0.015625 1.46875 0 2.046875 -0.078125 C 2.5 -0.140625 2.546875 -0.140625 2.8125 -0.140625 C 3.09375 -0.140625 3.140625 -0.140625 3.59375 -0.078125 C 3.984375 -0.015625 4.140625 -0.015625 4.3125 0 C 4.453125 0 4.484375 0 4.515625 -0.015625 C 4.625 -0.078125 4.640625 -0.234375 4.515625 -0.296875 C 4.5 -0.3125 4.453125 -0.3125 4.375 -0.328125 C 4.21875 -0.328125 4.109375 -0.375 3.96875 -0.484375 C 3.8125 -0.59375 3.6875 -0.765625 3.609375 -1 C 3.578125 -1.109375 3.546875 -1.265625 3.546875 -1.34375 L 3.546875 -1.390625 L 4 -1.390625 C 4.453125 -1.390625 4.46875 -1.390625 4.515625 -1.421875 C 4.65625 -1.5 4.65625 -1.6875 4.515625 -1.765625 C 4.46875 -1.796875 4.453125 -1.796875 4 -1.796875 L 3.546875 -1.796875 L 3.546875 -3.015625 C 3.546875 -4.203125 3.546875 -4.25 3.515625 -4.296875 C 3.5 -4.359375 3.4375 -4.390625 3.375 -4.40625 C 3.3125 -4.40625 3.265625 -4.375 3.21875 -4.296875 C 2.984375 -3.75 2.859375 -3.59375 2.359375 -3.265625 C 2.171875 -3.125 2.15625 -3.125 2.140625 -3.0625 L 2.109375 -3 L 2.09375 -2.390625 L 2.09375 -1.796875 L 0.40625 -1.796875 L 0.4375 -1.84375 C 0.46875 -1.875 3.453125 -5.234375 3.546875 -5.34375 C 3.59375 -5.390625 3.59375 -5.4375 3.546875 -5.5 C 3.515625 -5.53125 3.4375 -5.578125 3.390625 -5.578125 C 3.375 -5.578125 3.28125 -5.5625 3.15625 -5.53125 C 2.609375 -5.375 2.296875 -5.375 1.75 -5.53125 C 1.578125 -5.59375 1.546875 -5.59375 1.5 -5.5625 Z M 1.5 -5.5625 "/>
</g>
</g>
<clipPath id="clip-0">
<path clip-rule="nonzero" d="M 162 25 L 163.601562 25 L 163.601562 47 L 162 47 Z M 162 25 "/>
</clipPath>
<clipPath id="clip-1">
<path clip-rule="nonzero" d="M 0 45 L 163.601562 45 L 163.601562 47 L 0 47 Z M 0 45 "/>
</clipPath>
<clipPath id="clip-2">
<path clip-rule="nonzero" d="M 0 40 L 163.601562 40 L 163.601562 42 L 0 42 Z M 0 40 "/>
</clipPath>
<clipPath id="clip-3">
<path clip-rule="nonzero" d="M 0 35 L 163.601562 35 L 163.601562 37 L 0 37 Z M 0 35 "/>
</clipPath>
<clipPath id="clip-4">
<path clip-rule="nonzero" d="M 0 30 L 163.601562 30 L 163.601562 32 L 0 32 Z M 0 30 "/>
</clipPath>
<clipPath id="clip-5">
<path clip-rule="nonzero" d="M 0 25 L 163.601562 25 L 163.601562 27 L 0 27 Z M 0 25 "/>
</clipPath>
<clipPath id="clip-6">
<path clip-rule="nonzero" d="M 0 105 L 163.601562 105 L 163.601562 106 L 0 106 Z M 0 105 "/>
</clipPath>
<clipPath id="clip-7">
<path clip-rule="nonzero" d="M 0 100 L 163.601562 100 L 163.601562 101 L 0 101 Z M 0 100 "/>
</clipPath>
<clipPath id="clip-8">
<path clip-rule="nonzero" d="M 0 95 L 163.601562 95 L 163.601562 96 L 0 96 Z M 0 95 "/>
</clipPath>
<clipPath id="clip-9">
<path clip-rule="nonzero" d="M 0 90 L 163.601562 90 L 163.601562 91 L 0 91 Z M 0 90 "/>
</clipPath>
<clipPath id="clip-10">
<path clip-rule="nonzero" d="M 0 85 L 163.601562 85 L 163.601562 86 L 0 86 Z M 0 85 "/>
</clipPath>
<clipPath id="clip-11">
<path clip-rule="nonzero" d="M 162 46 L 163.601562 46 L 163.601562 86 L 162 86 Z M 162 46 "/>
</clipPath>
<clipPath id="clip-12">
<path clip-rule="nonzero" d="M 162 85 L 163.601562 85 L 163.601562 106 L 162 106 Z M 162 85 "/>
</clipPath>
</defs>
<path fill-rule="nonzero" fill="rgb(0%, 0%, 0%)" fill-opacity="1" stroke-width="1.205113" stroke-linecap="butt" stroke-linejoin="round" stroke="rgb(0%, 0%, 0%)" stroke-opacity="1" stroke-miterlimit="10" d="M 2408.600675 7450.396742 L 2418.054846 7450.396742 L 2418.054846 7654.622529 L 2408.600675 7654.622529 Z M 2408.600675 7450.396742 " transform="matrix(0.0995758, 0, 0, -0.0995758, -239.639018, 788.007806)"/>
<g clip-path="url(#clip-0)">
<path fill-rule="nonzero" fill="rgb(0%, 0%, 0%)" fill-opacity="1" stroke-width="1.205113" stroke-linecap="butt" stroke-linejoin="round" stroke="rgb(0%, 0%, 0%)" stroke-opacity="1" stroke-miterlimit="10" d="M 4036.561865 7450.396742 L 4046.016036 7450.396742 L 4046.016036 7654.622529 L 4036.561865 7654.622529 Z M 4036.561865 7450.396742 " transform="matrix(0.0995758, 0, 0, -0.0995758, -239.639018, 788.007806)"/>
</g>
<g clip-path="url(#clip-1)">
<path fill="none" stroke-width="4.98132" stroke-linecap="round" stroke-linejoin="round" stroke="rgb(0%, 0%, 0%)" stroke-opacity="1" stroke-miterlimit="10" d="M 285.962732 7452.828935 L 5666.798332 7452.828935 " transform="matrix(0.0995758, 0, 0, -0.0995758, -239.639018, 788.007806)"/>
</g>
<g clip-path="url(#clip-2)">
<path fill="none" stroke-width="4.98132" stroke-linecap="round" stroke-linejoin="round" stroke="rgb(0%, 0%, 0%)" stroke-opacity="1" stroke-miterlimit="10" d="M 285.962732 7502.6889 L 5666.798332 7502.6889 " transform="matrix(0.0995758, 0, 0, -0.0995758, -239.639018, 788.007806)"/>
</g>
<g clip-path="url(#clip-3)">
<path fill="none" stroke-width="4.98132" stroke-linecap="round" stroke-linejoin="round" stroke="rgb(0%, 0%, 0%)" stroke-opacity="1" stroke-miterlimit="10" d="M 285.962732 7552.509636 L 5666.798332 7552.509636 " transform="matrix(0.0995758, 0, 0, -0.0995758, -239.639018, 788.007806)"/>
</g>
<g clip-path="url(#clip-4)">
<path fill="none" stroke-width="4.98132" stroke-linecap="round" stroke-linejoin="round" stroke="rgb(0%, 0%, 0%)" stroke-opacity="1" stroke-miterlimit="10" d="M 285.962732 7602.291142 L 5666.798332 7602.291142 " transform="matrix(0.0995758, 0, 0, -0.0995758, -239.639018, 788.007806)"/>
</g>
<g clip-path="url(#clip-5)">
<path fill="none" stroke-width="4.98132" stroke-linecap="round" stroke-linejoin="round" stroke="rgb(0%, 0%, 0%)" stroke-opacity="1" stroke-miterlimit="10" d="M 285.962732 7652.111878 L 5666.798332 7652.111878 " transform="matrix(0.0995758, 0, 0, -0.0995758, -239.639018, 788.007806)"/>
</g>
<path fill="none" stroke-width="9.96264" stroke-linecap="butt" stroke-linejoin="round" stroke="rgb(0%, 0%, 0%)" stroke-opacity="1" stroke-miterlimit="10" d="M 2760.170308 7104.162243 L 2840.903437 7104.162243 Z M 2760.170308 7104.162243 " transform="matrix(0.0995758, 0, 0, -0.0995758, -239.639018, 788.007806)"/>
<path fill="none" stroke-width="9.96264" stroke-linecap="butt" stroke-linejoin="round" stroke="rgb(0%, 0%, 0%)" stroke-opacity="1" stroke-miterlimit="10" d="M 3126.568474 7104.162243 L 3214.951244 7104.162243 Z M 3126.568474 7104.162243 " transform="matrix(0.0995758, 0, 0, -0.0995758, -239.639018, 788.007806)"/>
<path fill="none" stroke-width="9.96264" stroke-linecap="butt" stroke-linejoin="round" stroke="rgb(0%, 0%, 0%)" stroke-opacity="1" stroke-miterlimit="10" d="M 3234.997225 6805.277058 L 3328.911273 6805.277058 Z M 3234.997225 6805.277058 " transform="matrix(0.0995758, 0, 0, -0.0995758, -239.639018, 788.007806)"/>
<path fill="none" stroke-width="9.96264" stroke-linecap="butt" stroke-linejoin="round" stroke="rgb(0%, 0%, 0%)" stroke-opacity="1" stroke-miterlimit="10" d="M 3234.997225 6755.456322 L 3328.911273 6755.456322 Z M 3234.997225 6755.456322 " transform="matrix(0.0995758, 0, 0, -0.0995758, -239.639018, 788.007806)"/>
<path fill="none" stroke-width="9.96264" stroke-linecap="butt" stroke-linejoin="round" stroke="rgb(0%, 0%, 0%)" stroke-opacity="1" stroke-miterlimit="10" d="M 3234.997225 6705.674816 L 3328.911273 6705.674816 Z M 3234.997225 6705.674816 " transform="matrix(0.0995758, 0, 0, -0.0995758, -239.639018, 788.007806)"/>
<path fill="none" stroke-width="9.96264" stroke-linecap="butt" stroke-linejoin="round" stroke="rgb(0%, 0%, 0%)" stroke-opacity="1" stroke-miterlimit="10" d="M 3234.997225 6655.85408 L 3328.911273 6655.85408 Z M 3234.997225 6655.85408 " transform="matrix(0.0995758, 0, 0, -0.0995758, -239.639018, 788.007806)"/>
<path fill="none" stroke-width="9.96264" stroke-linecap="butt" stroke-linejoin="round" stroke="rgb(0%, 0%, 0%)" stroke-opacity="1" stroke-miterlimit="10" d="M 3530.23412 7104.162243 L 3618.61689 7104.162243 Z M 3530.23412 7104.162243 " transform="matrix(0.0995758, 0, 0, -0.0995758, -239.639018, 788.007806)"/>
<path fill="none" stroke-width="9.96264" stroke-linecap="butt" stroke-linejoin="round" stroke="rgb(0%, 0%, 0%)" stroke-opacity="1" stroke-miterlimit="10" d="M 3904.321156 7104.162243 L 3992.703926 7104.162243 Z M 3904.321156 7104.162243 " transform="matrix(0.0995758, 0, 0, -0.0995758, -239.639018, 788.007806)"/>
<g clip-path="url(#clip-6)">
<path fill="none" stroke-width="4.98132" stroke-linecap="round" stroke-linejoin="round" stroke="rgb(0%, 0%, 0%)" stroke-opacity="1" stroke-miterlimit="10" d="M 285.962732 6855.137023 L 5666.798332 6855.137023 " transform="matrix(0.0995758, 0, 0, -0.0995758, -239.639018, 788.007806)"/>
</g>
<g clip-path="url(#clip-7)">
<path fill="none" stroke-width="4.98132" stroke-linecap="round" stroke-linejoin="round" stroke="rgb(0%, 0%, 0%)" stroke-opacity="1" stroke-miterlimit="10" d="M 285.962732 6904.918529 L 5666.798332 6904.918529 " transform="matrix(0.0995758, 0, 0, -0.0995758, -239.639018, 788.007806)"/>
</g>
<g clip-path="url(#clip-8)">
<path fill="none" stroke-width="4.98132" stroke-linecap="round" stroke-linejoin="round" stroke="rgb(0%, 0%, 0%)" stroke-opacity="1" stroke-miterlimit="10" d="M 285.962732 6954.739265 L 5666.798332 6954.739265 " transform="matrix(0.0995758, 0, 0, -0.0995758, -239.639018, 788.007806)"/>
</g>
<g clip-path="url(#clip-9)">
<path fill="none" stroke-width="4.98132" stroke-linecap="round" stroke-linejoin="round" stroke="rgb(0%, 0%, 0%)" stroke-opacity="1" stroke-miterlimit="10" d="M 285.962732 7004.520772 L 5666.798332 7004.520772 " transform="matrix(0.0995758, 0, 0, -0.0995758, -239.639018, 788.007806)"/>
</g>
<g clip-path="url(#clip-10)">
<path fill="none" stroke-width="4.98132" stroke-linecap="round" stroke-linejoin="round" stroke="rgb(0%, 0%, 0%)" stroke-opacity="1" stroke-miterlimit="10" d="M 285.962732 7054.380736 L 5666.798332 7054.380736 " transform="matrix(0.0995758, 0, 0, -0.0995758, -239.639018, 788.007806)"/>
</g>
<path fill-rule="nonzero" fill="rgb(0%, 0%, 0%)" fill-opacity="1" stroke-width="1.205113" stroke-linecap="butt" stroke-linejoin="round" stroke="rgb(0%, 0%, 0%)" stroke-opacity="1" stroke-miterlimit="10" d="M 2408.600675 6852.587142 L 2418.054846 6852.587142 L 2418.054846 7056.852159 L 2408.600675 7056.852159 Z M 2408.600675 6852.587142 " transform="matrix(0.0995758, 0, 0, -0.0995758, -239.639018, 788.007806)"/>
<g clip-path="url(#clip-11)">
<path fill-rule="nonzero" fill="rgb(0%, 0%, 0%)" fill-opacity="1" stroke-width="1.205113" stroke-linecap="butt" stroke-linejoin="round" stroke="rgb(0%, 0%, 0%)" stroke-opacity="1" stroke-miterlimit="10" d="M 4036.561865 7056.852159 L 4046.016036 7056.852159 L 4046.016036 7450.357513 L 4036.561865 7450.357513 Z M 4036.561865 7056.852159 " transform="matrix(0.0995758, 0, 0, -0.0995758, -239.639018, 788.007806)"/>
</g>
<path fill-rule="nonzero" fill="rgb(0%, 0%, 0%)" fill-opacity="1" stroke-width="1.205113" stroke-linecap="butt" stroke-linejoin="round" stroke="rgb(0%, 0%, 0%)" stroke-opacity="1" stroke-miterlimit="10" d="M 2408.600675 7056.852159 L 2418.054846 7056.852159 L 2418.054846 7450.357513 L 2408.600675 7450.357513 Z M 2408.600675 7056.852159 " transform="matrix(0.0995758, 0, 0, -0.0995758, -239.639018, 788.007806)"/>
<g clip-path="url(#clip-12)">
<path fill-rule="nonzero" fill="rgb(0%, 0%, 0%)" fill-opacity="1" stroke-width="1.205113" stroke-linecap="butt" stroke-linejoin="round" stroke="rgb(0%, 0%, 0%)" stroke-opacity="1" stroke-miterlimit="10" d="M 4036.561865 6852.587142 L 4046.016036 6852.587142 L 4046.016036 7056.852159 L 4036.561865 7056.852159 Z M 4036.561865 6852.587142 " transform="matrix(0.0995758, 0, 0, -0.0995758, -239.639018, 788.007806)"/>
</g>
<g fill="rgb(0%, 0%, 0%)" fill-opacity="1">
<use xlink:href="#glyph-0-0" x="83.717123" y="125.246261"/>
</g>
<g fill="rgb(0%, 0%, 0%)" fill-opacity="1">
<use xlink:href="#glyph-0-0" x="83.717123" y="107.885427"/>
</g>
<g fill="rgb(0%, 0%, 0%)" fill-opacity="1">
<use xlink:href="#glyph-0-0" x="83.717123" y="43.403154"/>
</g>
<path fill-rule="nonzero" fill="rgb(0%, 0%, 0%)" fill-opacity="1" stroke-width="3.98506" stroke-linecap="butt" stroke-linejoin="round" stroke="rgb(0%, 0%, 0%)" stroke-opacity="1" stroke-miterlimit="10" d="M 3199.063529 7140.409771 L 3201.57418 7140.409771 L 3201.57418 7242.169604 L 3199.063529 7242.169604 Z M 3199.063529 7140.409771 " transform="matrix(0.0995758, 0, 0, -0.0995758, -239.639018, 788.007806)"/>
<g fill="rgb(0%, 0%, 0%)" fill-opacity="1">
<use xlink:href="#glyph-0-1" x="72.829709" y="78.123268"/>
</g>
<path fill-rule="nonzero" fill="rgb(0%, 0%, 0%)" fill-opacity="1" stroke-width="3.98506" stroke-linecap="butt" stroke-linejoin="round" stroke="rgb(0%, 0%, 0%)" stroke-opacity="1" stroke-miterlimit="10" d="M 2934.307509 7015.857931 L 2936.81816 7015.857931 L 2936.81816 7176.853443 L 2934.307509 7176.853443 Z M 2934.307509 7015.857931 " transform="matrix(0.0995758, 0, 0, -0.0995758, -239.639018, 788.007806)"/>
<path fill="none" stroke-width="3.98506" stroke-linecap="butt" stroke-linejoin="round" stroke="rgb(0%, 0%, 0%)" stroke-opacity="1" stroke-miterlimit="10" d="M 2541.469047 7188.112144 L 2541.469047 7168.18385 L 2827.487144 7234.912253 L 2827.487144 7254.840547 Z M 2541.469047 7188.112144 " transform="matrix(0.0995758, 0, 0, -0.0995758, -239.639018, 788.007806)"/>
<path fill-rule="nonzero" fill="rgb(0%, 0%, 0%)" fill-opacity="1" d="M 13.429688 72.246094 L 13.429688 74.230469 L 41.910156 67.585938 L 41.910156 65.601562 "/>
<path fill-rule="nonzero" fill="rgb(0%, 0%, 0%)" fill-opacity="1" stroke-width="3.98506" stroke-linecap="butt" stroke-linejoin="round" stroke="rgb(0%, 0%, 0%)" stroke-opacity="1" stroke-miterlimit="10" d="M 3470.331551 7065.717896 L 3472.842202 7065.717896 L 3472.842202 7204.313691 L 3470.331551 7204.313691 Z M 3470.331551 7065.717896 " transform="matrix(0.0995758, 0, 0, -0.0995758, -239.639018, 788.007806)"/>
<g fill="rgb(0%, 0%, 0%)" fill-opacity="1">
<use xlink:href="#glyph-0-1" x="99.842621" y="85.564565"/>
</g>
<path fill-rule="nonzero" fill="rgb(0%, 0%, 0%)" fill-opacity="1" stroke-width="3.98506" stroke-linecap="butt" stroke-linejoin="round" stroke="rgb(0%, 0%, 0%)" stroke-opacity="1" stroke-miterlimit="10" d="M 3308.394545 7015.857931 L 3310.905196 7015.857931 L 3310.905196 7176.853443 L 3308.394545 7176.853443 Z M 3308.394545 7015.857931 " transform="matrix(0.0995758, 0, 0, -0.0995758, -239.639018, 788.007806)"/>
<path fill="none" stroke-width="3.98506" stroke-linecap="butt" stroke-linejoin="round" stroke="rgb(0%, 0%, 0%)" stroke-opacity="1" stroke-miterlimit="10" d="M 2934.307509 7188.072915 L 2934.307509 7168.144621 L 3201.57418 7234.990711 L 3201.57418 7254.919005 Z M 2934.307509 7188.072915 " transform="matrix(0.0995758, 0, 0, -0.0995758, -239.639018, 788.007806)"/>
<path fill-rule="nonzero" fill="rgb(0%, 0%, 0%)" fill-opacity="1" d="M 52.546875 72.25 L 52.546875 74.234375 L 79.160156 67.578125 L 79.160156 65.59375 "/>
<g fill="rgb(0%, 0%, 0%)" fill-opacity="1">
<use xlink:href="#glyph-1-0" x="85.215938" y="102.675663"/>
</g>
<path fill-rule="nonzero" fill="rgb(0%, 0%, 0%)" fill-opacity="1" stroke-width="3.98506" stroke-linecap="butt" stroke-linejoin="round" stroke="rgb(0%, 0%, 0%)" stroke-opacity="1" stroke-miterlimit="10" d="M 3249.315783 6533.263687 L 3251.787205 6533.263687 L 3251.787205 6815.162747 L 3249.315783 6815.162747 Z M 3249.315783 6533.263687 " transform="matrix(0.0995758, 0, 0, -0.0995758, -239.639018, 788.007806)"/>
<path fill-rule="nonzero" fill="rgb(0%, 0%, 0%)" fill-opacity="1" stroke-width="3.98506" stroke-linecap="butt" stroke-linejoin="round" stroke="rgb(0%, 0%, 0%)" stroke-opacity="1" stroke-miterlimit="10" d="M 3312.082064 7492.803211 L 3314.553486 7492.803211 L 3314.553486 7650.150432 L 3312.082064 7650.150432 Z M 3312.082064 7492.803211 " transform="matrix(0.0995758, 0, 0, -0.0995758, -239.639018, 788.007806)"/>
<g fill="rgb(0%, 0%, 0%)" fill-opacity="1">
<use xlink:href="#glyph-0-1" x="83.716327" y="90.524433"/>
</g>
<path fill-rule="nonzero" fill="rgb(0%, 0%, 0%)" fill-opacity="1" stroke-width="3.98506" stroke-linecap="butt" stroke-linejoin="round" stroke="rgb(0%, 0%, 0%)" stroke-opacity="1" stroke-miterlimit="10" d="M 3844.418586 7065.717896 L 3846.929238 7065.717896 L 3846.929238 7231.460107 L 3844.418586 7231.460107 Z M 3844.418586 7065.717896 " transform="matrix(0.0995758, 0, 0, -0.0995758, -239.639018, 788.007806)"/>
<g fill="rgb(0%, 0%, 0%)" fill-opacity="1">
<use xlink:href="#glyph-0-1" x="137.09192" y="85.564565"/>
</g>
<path fill-rule="nonzero" fill="rgb(0%, 0%, 0%)" fill-opacity="1" stroke-width="3.98506" stroke-linecap="butt" stroke-linejoin="round" stroke="rgb(0%, 0%, 0%)" stroke-opacity="1" stroke-miterlimit="10" d="M 3712.060191 7015.857931 L 3714.531613 7015.857931 L 3714.531613 7201.76381 L 3712.060191 7201.76381 Z M 3712.060191 7015.857931 " transform="matrix(0.0995758, 0, 0, -0.0995758, -239.639018, 788.007806)"/>
<path fill="none" stroke-width="3.98506" stroke-linecap="butt" stroke-linejoin="round" stroke="rgb(0%, 0%, 0%)" stroke-opacity="1" stroke-miterlimit="10" d="M 3308.394545 7188.308289 L 3308.394545 7168.379995 L 3605.200597 7219.259911 L 3605.200597 7239.227435 Z M 3308.394545 7188.308289 " transform="matrix(0.0995758, 0, 0, -0.0995758, -239.639018, 788.007806)"/>
<path fill-rule="nonzero" fill="rgb(0%, 0%, 0%)" fill-opacity="1" d="M 89.796875 72.226562 L 89.796875 74.210938 L 119.351562 69.144531 L 119.351562 67.15625 "/>
<g fill="rgb(0%, 0%, 0%)" fill-opacity="1">
<use xlink:href="#glyph-0-1" x="123.911077" y="90.524433"/>
</g>
<path fill-rule="nonzero" fill="rgb(0%, 0%, 0%)" fill-opacity="1" stroke-width="3.98506" stroke-linecap="butt" stroke-linejoin="round" stroke="rgb(0%, 0%, 0%)" stroke-opacity="1" stroke-miterlimit="10" d="M 3602.729175 7115.538632 L 3605.200597 7115.538632 L 3605.200597 7226.713407 L 3602.729175 7226.713407 Z M 3602.729175 7115.538632 " transform="matrix(0.0995758, 0, 0, -0.0995758, -239.639018, 788.007806)"/>
<g fill="rgb(0%, 0%, 0%)" fill-opacity="1">
<use xlink:href="#glyph-1-1" x="114.339855" y="91.4007"/>
</g>
<g fill="rgb(0%, 0%, 0%)" fill-opacity="1">
<use xlink:href="#glyph-0-1" x="113.02437" y="80.603701"/>
</g>
<g fill="rgb(0%, 0%, 0%)" fill-opacity="1">
<use xlink:href="#glyph-0-2" x="92.650672" y="85.563818"/>
</g>
<path fill-rule="nonzero" fill="rgb(0%, 0%, 0%)" fill-opacity="1" stroke-width="3.98506" stroke-linecap="butt" stroke-linejoin="round" stroke="rgb(0%, 0%, 0%)" stroke-opacity="1" stroke-miterlimit="10" d="M 3066.705134 7090.628264 L 3069.176556 7090.628264 L 3069.176556 7209.531138 L 3066.705134 7209.531138 Z M 3066.705134 7090.628264 " transform="matrix(0.0995758, 0, 0, -0.0995758, -239.639018, 788.007806)"/>
<g fill="rgb(0%, 0%, 0%)" fill-opacity="1">
<use xlink:href="#glyph-0-1" x="59.64787" y="83.084133"/>
</g>
<path fill="none" stroke-width="3.98506" stroke-linecap="butt" stroke-linejoin="round" stroke="rgb(0%, 0%, 0%)" stroke-opacity="1" stroke-miterlimit="10" d="M 3712.060191 7213.022512 L 3712.060191 7193.094218 L 3979.287633 7253.820595 L 3979.287633 7273.748889 Z M 3712.060191 7213.022512 " transform="matrix(0.0995758, 0, 0, -0.0995758, -239.639018, 788.007806)"/>
<path fill-rule="nonzero" fill="rgb(0%, 0%, 0%)" fill-opacity="1" d="M 129.992188 69.765625 L 129.992188 71.75 L 156.601562 65.703125 L 156.601562 63.71875 "/>
<path fill-rule="nonzero" fill="rgb(0%, 0%, 0%)" fill-opacity="1" stroke-width="3.98506" stroke-linecap="butt" stroke-linejoin="round" stroke="rgb(0%, 0%, 0%)" stroke-opacity="1" stroke-miterlimit="10" d="M 3976.816211 7115.538632 L 3979.287633 7115.538632 L 3979.287633 7261.077946 L 3976.816211 7261.077946 Z M 3976.816211 7115.538632 " transform="matrix(0.0995758, 0, 0, -0.0995758, -239.639018, 788.007806)"/>
<g fill="rgb(0%, 0%, 0%)" fill-opacity="1">
<use xlink:href="#glyph-0-1" x="150.272763" y="80.603701"/>
</g>
<g fill="rgb(0%, 0%, 0%)" fill-opacity="1">
<use xlink:href="#glyph-0-0" x="7.348193" y="107.88477"/>
</g>
<g fill="rgb(0%, 0%, 0%)" fill-opacity="1">
<use xlink:href="#glyph-1-0" x="8.847276" y="23.313486"/>
</g>
<g fill="rgb(0%, 0%, 0%)" fill-opacity="1">
<use xlink:href="#glyph-0-0" x="7.347805" y="43.403293"/>
</g>
<path fill-rule="nonzero" fill="rgb(0%, 0%, 0%)" fill-opacity="1" stroke-width="3.98506" stroke-linecap="butt" stroke-linejoin="round" stroke="rgb(0%, 0%, 0%)" stroke-opacity="1" stroke-miterlimit="10" d="M 2545.117337 7492.803211 L 2547.627988 7492.803211 L 2547.627988 7650.150432 L 2545.117337 7650.150432 Z M 2545.117337 7492.803211 " transform="matrix(0.0995758, 0, 0, -0.0995758, -239.639018, 788.007806)"/>
<g fill="rgb(0%, 0%, 0%)" fill-opacity="1">
<use xlink:href="#glyph-0-1" x="7.347695" y="90.524433"/>
</g>
<g fill="rgb(0%, 0%, 0%)" fill-opacity="1">
<use xlink:href="#glyph-1-1" x="8.847167" y="128.354259"/>
</g>
<path fill-rule="nonzero" fill="rgb(0%, 0%, 0%)" fill-opacity="1" stroke-width="3.98506" stroke-linecap="butt" stroke-linejoin="round" stroke="rgb(0%, 0%, 0%)" stroke-opacity="1" stroke-miterlimit="10" d="M 2824.976493 7140.409771 L 2827.487144 7140.409771 L 2827.487144 7242.169604 L 2824.976493 7242.169604 Z M 2824.976493 7140.409771 " transform="matrix(0.0995758, 0, 0, -0.0995758, -239.639018, 788.007806)"/>
<g fill="rgb(0%, 0%, 0%)" fill-opacity="1">
<use xlink:href="#glyph-0-1" x="46.468023" y="90.524433"/>
</g>
<path fill-rule="nonzero" fill="rgb(0%, 0%, 0%)" fill-opacity="1" stroke-width="3.98506" stroke-linecap="butt" stroke-linejoin="round" stroke="rgb(0%, 0%, 0%)" stroke-opacity="1" stroke-miterlimit="10" d="M 2541.469047 7015.857931 L 2543.940469 7015.857931 L 2543.940469 7176.853443 L 2541.469047 7176.853443 Z M 2541.469047 7015.857931 " transform="matrix(0.0995758, 0, 0, -0.0995758, -239.639018, 788.007806)"/>
<path fill-rule="nonzero" fill="rgb(0%, 0%, 0%)" fill-opacity="1" stroke-width="3.98506" stroke-linecap="butt" stroke-linejoin="round" stroke="rgb(0%, 0%, 0%)" stroke-opacity="1" stroke-miterlimit="10" d="M 2482.390285 6707.636262 L 2484.861707 6707.636262 L 2484.861707 6815.162747 L 2482.390285 6815.162747 Z M 2482.390285 6707.636262 " transform="matrix(0.0995758, 0, 0, -0.0995758, -239.639018, 788.007806)"/>
<g fill="rgb(0%, 0%, 0%)" fill-opacity="1">
<use xlink:href="#glyph-0-1" x="20.527542" y="83.084133"/>
</g>
<g fill="rgb(0%, 0%, 0%)" fill-opacity="1">
<use xlink:href="#glyph-1-2" x="36.557248" y="91.40065"/>
</g>
<g fill="rgb(0%, 0%, 0%)" fill-opacity="1">
<use xlink:href="#glyph-0-1" x="35.579383" y="78.124015"/>
</g>
<g fill="rgb(0%, 0%, 0%)" fill-opacity="1">
<use xlink:href="#glyph-0-3" x="30.536415" y="78.124015"/>
</g>
<path fill-rule="nonzero" fill="rgb(0%, 0%, 0%)" fill-opacity="1" stroke-width="3.98506" stroke-linecap="butt" stroke-linejoin="round" stroke="rgb(0%, 0%, 0%)" stroke-opacity="1" stroke-miterlimit="10" d="M 2673.827442 7090.628264 L 2676.338093 7090.628264 L 2676.338093 7207.373547 L 2673.827442 7207.373547 Z M 2673.827442 7090.628264 " transform="matrix(0.0995758, 0, 0, -0.0995758, -239.639018, 788.007806)"/>
</svg>
